<svg xmlns="http://www.w3.org/2000/svg" viewBox="0 0 512 512" fill="none">
  <rect width="512" height="512" rx="100" fill="#6366F1"/>
  <path d="M400 80C400 80 290 118 226 208C162 298 162 412 162 412C162 412 194 368 240 336C240 336 208 352 192 384C192 384 256 320 288 272C256 288 224 304 224 304C224 304 272 240 336 192C336 192 304 208 272 224C272 224 320 160 400 80Z" fill="white" opacity="0.95"/>
  <path d="M162 412L178 352L210 384L162 412Z" fill="#F59E0B"/>
  <circle cx="416" cy="96" r="32" fill="#F59E0B" opacity="0.8"/>
</svg>
